<svg width="36" height="41" viewBox="0 0 36 41" fill="none" xmlns="http://www.w3.org/2000/svg">
    <path d="M15.7083 28.875C15.5694 28.7361 15.5 28.5833 15.5 28.4167C15.5 28.25 15.5694 28.0972 15.7083 27.9583L23.1667 20.5L15.7083 13C15.5694 12.8889 15.5 12.7361 15.5 12.5417C15.5 12.3472 15.5694 12.1806 15.7083 12.0417C15.8472 11.9028 16 11.8333 16.1667 11.8333C16.3333 11.8333 16.4861 11.9028 16.625 12.0417L24.2083 19.6667C24.3194 19.8055 24.4097 19.9375 24.4792 20.0625C24.5486 20.1875 24.5833 20.3333 24.5833 20.5C24.5833 20.6389 24.5486 20.7778 24.4792 20.9167C24.4097 21.0555 24.3194 21.1806 24.2083 21.2917L16.625 28.875C16.4861 29.0139 16.3333 29.0764 16.1667 29.0625C16 29.0486 15.8472 28.9861 15.7083 28.875Z" fill="#E7E7E7"/>
</svg>
