<svg width="33" height="34" viewBox="0 0 33 34" fill="none" xmlns="http://www.w3.org/2000/svg">
    <path fill-rule="evenodd" clip-rule="evenodd" d="M32 16.9833C32 15.7758 31.8939 14.6147 31.697 13.5H16V20.0873H24.9697C24.5833 22.216 23.4091 24.0196 21.6439 25.2271V29.5H27.0303C30.1818 26.5353 32 22.1696 32 16.9833Z" fill="#4285F4"/>
    <path fill-rule="evenodd" clip-rule="evenodd" d="M16.9375 33.5C21.4506 33.5 25.2344 32.0629 28 29.6117L22.5979 25.5847C21.1011 26.5477 19.1864 27.1167 16.9375 27.1167C12.5839 27.1167 8.89889 24.2935 7.58445 20.5H2V24.6582C4.75044 29.9035 10.4033 33.5 16.9375 33.5Z" fill="#34A853"/>
    <path fill-rule="evenodd" clip-rule="evenodd" d="M7 20.1731C6.68215 19.1711 6.50155 18.1007 6.50155 17C6.50155 15.8993 6.68215 14.8289 7 13.8269V9.5H1.6904C0.614035 11.7546 0 14.3052 0 17C0 19.6948 0.614035 22.2454 1.6904 24.5L7 20.1731Z" fill="#FBBC05"/>
    <path fill-rule="evenodd" clip-rule="evenodd" d="M16.8679 6.88328C19.3106 6.88328 21.5038 7.69304 23.228 9.28339L28 4.68013C25.1187 2.09035 21.3525 0.5 16.8679 0.5C10.3642 0.5 4.73764 4.09652 2 9.34175L7.55846 13.5C8.86678 9.70651 12.5346 6.88328 16.8679 6.88328Z" fill="#EA4335"/>
</svg>
